<?xml version="1.0" encoding="UTF-8" standalone="no"?>
<!DOCTYPE svg PUBLIC "-//W3C//DTD SVG 1.1//EN" "http://www.w3.org/Graphics/SVG/1.1/DTD/svg11.dtd">
<svg width="100%" height="100%" viewBox="0 0 32 32" version="1.1" xmlns="http://www.w3.org/2000/svg" xmlns:xlink="http://www.w3.org/1999/xlink" xml:space="preserve" xmlns:serif="http://www.serif.com/" style="fill-rule:evenodd;clip-rule:evenodd;stroke-linecap:round;stroke-linejoin:round;stroke-miterlimit:1.5;">
    <g transform="matrix(1,0,0,1,0,-7)">
        <g id="Artboard1" transform="matrix(0.016667,0,0,0.02963,0,7)">
            <rect x="0" y="0" width="1920" height="1080" style="fill:white;"/>
            <g transform="matrix(87.5,0,0,49.21875,-400,203.90625)">
                <path d="M10,9C11.105,9 12,9.895 12,11L12,11C12,12.105 11.105,13 10,13L10,13C8.895,13 8,12.105 8,11L8,11C8,9.895 8.895,9 10,9L10,9Z"/>
            </g>
            <g transform="matrix(87.5,0,0,49.21875,200,-274.21875)">
                <path d="M10,9C11.105,9 12,9.895 12,11L12,11C12,12.105 11.105,13 10,13L10,13C8.895,13 8,12.105 8,11L8,11C8,9.895 8.895,9 10,9L10,9Z"/>
            </g>
            <g transform="matrix(87.5,0,0,49.21875,550,147.65625)">
                <path d="M10,9C11.105,9 12,9.895 12,11L12,11C12,12.105 11.105,13 10,13L10,13C8.895,13 8,12.105 8,11L8,11C8,9.895 8.895,9 10,9L10,9Z"/>
            </g>
            <g transform="matrix(48.443337,1.92637,3.424658,23.886986,-133.001245,209.589041)">
                <path d="M14,16L19.776,7.292" style="fill:none;stroke:black;stroke-width:1.23px;"/>
            </g>
            <g transform="matrix(48.443337,1.92637,3.424658,23.886986,419.409629,216.778927)">
                <path d="M17.337,11.898L15.595,7.328" style="fill:none;stroke:black;stroke-width:1.23px;"/>
            </g>
        </g>
    </g>
</svg>
